# xmcd
#
# Track frame offsets: 
#        150
#        20430
#        43735
#        55461
#        92316
#        106688
#        119389
#        127791
#        135809
#        155224
#        177394
#        188567
#        211991
#        230943
#
# Disc length: 3319 seconds
#
# Revision: 0
# Processed by: cddbd v1.5.2PL0 Copyright (c) Steve Scherf et al.
# Submitted via: ExactAudioCopy v1.0b1
#
DISCID=b60cf50e
DTITLE=The Kay-Gee's - Keep On Bumpin' and Masterplan
DYEAR=1974
DGENRE=Funk
TTITLE0=Get Down
TTITLE1=Let's Boogie
TTITLE2=My Favorite Song
TTITLE3=You've Got To Keep On Bumpin'
TTITLE4=Hustle Wit Every Muscle (Theme from "PARTY" T.V.Show)
TTITLE5=Master Plan
TTITLE6=Who's The Man (With The Master Plan)
TTITLE7=Ain't No Time (Part 1)
TTITLE8=Wondering
TTITLE9=Ain't No Time (Part 2)
TTITLE10=Anthology
TTITLE11=My Favorite Song (Disco Version)
TTITLE12=Hustle Wit Every Muscle (Long Version)
TTITLE13=Let's Boogie (Instrumental)
EXTD=
EXTT0=
EXTT1=
EXTT2=
EXTT3=
EXTT4=
EXTT5=
EXTT6=
EXTT7=
EXTT8=
EXTT9=
EXTT10=
EXTT11=
EXTT12=
EXTT13=
PLAYORDER=
